# xmcd CD database file
#
# Track frame offsets:
#	150
#	16385
#	34280
#	59164
#	78300
#	96892
#	116867
#	139257
#	156947
#	172545
#	196285
#	219130
#	238292
#	261180
#
# Disc length: 3738 seconds
#
# Revision: 6
# Processed by: cddbd v1.5.2PL0 Copyright (c) Steve Scherf et al.
# Submitted via: CDex 1.40Release
#
DISCID=c40e980e
DTITLE=Ricardo Arjona - Sin daños a terceros
DYEAR=1998
DGENRE=Latin
TTITLE0=Te guste o no
TTITLE1=Mentiroso
TTITLE2=Olvidarte
TTITLE3=Desnuda
TTITLE4=Loco
TTITLE5=Dime que no
TTITLE6=Buenas noches don David
TTITLE7=No estoy solo
TTITLE8=Vientre de cuna
TTITLE9=Hoy es un buen día para empezar
TTITLE10=Millonario de luz
TTITLE11=Con una estrella
TTITLE12=A siete metros
TTITLE13=Tarde (sin daños a terceros)
EXTD=YEAR: 1998 ID3G: 86
EXTT0=
EXTT1=
EXTT2=
EXTT3=
EXTT4=
EXTT5=
EXTT6=
EXTT7=
EXTT8=
EXTT9=
EXTT10=
EXTT11=
EXTT12=
EXTT13=
PLAYORDER=
